<svg width="32" height="33" viewBox="0 0 32 33" fill="none" xmlns="http://www.w3.org/2000/svg">
<rect y="0.5" width="32" height="32" rx="4" fill="#FF8A2E"/>
<path d="M23.7156 9.77881L16.2156 7.52881C16.1027 7.497 15.984 7.49145 15.8687 7.51257C15.7533 7.53369 15.6443 7.58094 15.55 7.65069C15.4574 7.72104 15.3822 7.81173 15.3302 7.91577C15.2781 8.01979 15.2508 8.13438 15.25 8.25069V18.4038C14.4289 17.6586 13.3589 17.2473 12.25 17.2507C11.36 17.2507 10.49 17.5146 9.74993 18.0091C9.00992 18.5036 8.43314 19.2063 8.09255 20.0286C7.75195 20.8509 7.66284 21.7557 7.83647 22.6286C8.0101 23.5015 8.43869 24.3033 9.06802 24.9326C9.69736 25.562 10.4992 25.9906 11.3721 26.1642C12.245 26.3378 13.1498 26.2487 13.9721 25.9082C14.7944 25.5676 15.4971 24.9908 15.9916 24.2507C16.4861 23.5107 16.75 22.6407 16.75 21.7507V13.7632L23.2844 15.7226C23.3973 15.7544 23.516 15.7599 23.6313 15.7388C23.7467 15.7177 23.8557 15.6704 23.95 15.6007C24.0426 15.5303 24.1179 15.4397 24.1698 15.3356C24.2219 15.2316 24.2493 15.117 24.25 15.0007V10.5007C24.2493 10.3392 24.1971 10.1821 24.101 10.0523C24.0049 9.92246 23.8699 9.82667 23.7156 9.77881Z" fill="#0A0A0A"/>
<path d="M23.7156 9.77881L16.2156 7.52881C16.1027 7.497 15.984 7.49145 15.8687 7.51257C15.7533 7.53369 15.6443 7.58094 15.55 7.65069C15.4574 7.72104 15.3822 7.81173 15.3302 7.91577C15.2781 8.01979 15.2508 8.13438 15.25 8.25069V18.4038C14.4289 17.6586 13.3589 17.2473 12.25 17.2507C11.36 17.2507 10.49 17.5146 9.74993 18.0091C9.00992 18.5036 8.43314 19.2063 8.09255 20.0286C7.75195 20.8509 7.66284 21.7557 7.83647 22.6286C8.0101 23.5015 8.43869 24.3033 9.06802 24.9326C9.69736 25.562 10.4992 25.9906 11.3721 26.1642C12.245 26.3378 13.1498 26.2487 13.9721 25.9082C14.7944 25.5676 15.4971 24.9908 15.9916 24.2507C16.4861 23.5107 16.75 22.6407 16.75 21.7507V13.7632L23.2844 15.7226C23.3973 15.7544 23.516 15.7599 23.6313 15.7388C23.7467 15.7177 23.8557 15.6704 23.95 15.6007C24.0426 15.5303 24.1179 15.4397 24.1698 15.3356C24.2219 15.2316 24.2493 15.117 24.25 15.0007V10.5007C24.2493 10.3392 24.1971 10.1821 24.101 10.0523C24.0049 9.92246 23.8699 9.82667 23.7156 9.77881Z" fill="#0A0A0A"/>
</svg>
