<svg width="32" height="33" viewBox="0 0 32 33" fill="none" xmlns="http://www.w3.org/2000/svg">
<rect y="0.5" width="32" height="32" rx="4" fill="#FF8A2E"/>
<path d="M20.5 24.75C21.7427 24.75 22.75 23.7427 22.75 22.5C22.75 21.2573 21.7427 20.25 20.5 20.25C19.2573 20.25 18.25 21.2573 18.25 22.5C18.25 23.7427 19.2573 24.75 20.5 24.75Z" fill="#0A0A0A"/>
<path d="M7.75 10.5H24.25M7.75 16.5H19M7.75 22.5H14.5M22.75 22.5C22.75 23.7427 21.7427 24.75 20.5 24.75C19.2573 24.75 18.25 23.7427 18.25 22.5C18.25 21.2573 19.2573 20.25 20.5 20.25C21.7427 20.25 22.75 21.2573 22.75 22.5ZM22.75 22.5V15L26.5 16.125" stroke="#0A0A0A" stroke-width="3" stroke-linecap="round" stroke-linejoin="round"/>
</svg>
