<svg width="40" height="40" viewBox="0 0 40 40" fill="none" xmlns="http://www.w3.org/2000/svg">
<rect width="40" height="40" rx="8" fill="#0A0A0A"/>
<path opacity="0.2" d="M15.5 23.75H11C10.8011 23.75 10.6103 23.6709 10.4697 23.5303C10.329 23.3897 10.25 23.1989 10.25 23V17C10.25 16.8011 10.329 16.6103 10.4697 16.4697C10.6103 16.3291 10.8011 16.25 11 16.25H15.5V23.75Z" fill="#FF8A2E"/>
<path d="M28.5219 15.2281C29.1495 15.8542 29.6474 16.598 29.9871 17.4169C30.3269 18.2357 30.5017 19.1135 30.5017 20C30.5017 20.8865 30.3269 21.7643 29.9871 22.5832C29.6474 23.402 29.1495 24.1458 28.5219 24.7719M15.5 16.25V23.75M25.8687 17.8813C26.1476 18.1591 26.3689 18.4893 26.52 18.8529C26.6709 19.2165 26.7487 19.6063 26.7487 20C26.7487 20.3937 26.6709 20.7835 26.52 21.1471C26.3689 21.5107 26.1476 21.8409 25.8687 22.1188M15.5 23.75H11C10.8011 23.75 10.6103 23.6709 10.4697 23.5303C10.329 23.3897 10.25 23.1989 10.25 23V17C10.25 16.8011 10.329 16.6103 10.4697 16.4697C10.6103 16.3291 10.8011 16.25 11 16.25H15.5L22.25 11V29L15.5 23.75Z" stroke="#FF8A2E" stroke-width="2" stroke-linecap="round" stroke-linejoin="round"/>
</svg>
